<svg xmlns="http://www.w3.org/2000/svg" viewBox="0 0 512 512">
  <defs>
    <linearGradient id="bg" x1="80" y1="32" x2="432" y2="480" gradientUnits="userSpaceOnUse">
      <stop stop-color="#111827"/>
      <stop offset="0.52" stop-color="#0B0F14"/>
      <stop offset="1" stop-color="#071C12"/>
    </linearGradient>
    <linearGradient id="metal" x1="88" y1="164" x2="424" y2="348" gradientUnits="userSpaceOnUse">
      <stop stop-color="#F9FAFB"/>
      <stop offset="0.5" stop-color="#38BDF8"/>
      <stop offset="1" stop-color="#22C55E"/>
    </linearGradient>
    <filter id="glow" x="-40%" y="-40%" width="180%" height="180%">
      <feGaussianBlur stdDeviation="10" result="blur"/>
      <feColorMatrix in="blur" type="matrix" values="0 0 0 0 0.13 0 0 0 0 0.77 0 0 0 0 0.37 0 0 0 0.55 0"/>
      <feMerge>
        <feMergeNode/>
        <feMergeNode in="SourceGraphic"/>
      </feMerge>
    </filter>
  </defs>
  <rect width="512" height="512" rx="112" fill="url(#bg)"/>
  <path d="M150 150h212c32 0 58 26 58 58v96c0 32-26 58-58 58H246c-63 0-114-51-114-114v-80c0-10 8-18 18-18Z" fill="#0B0F14" stroke="#263647" stroke-width="18"/>
  <path d="M294 198c-15-18-38-30-65-30-52 0-91 39-91 88s39 88 91 88c44 0 78-27 87-66h-91v-54h156c2 10 3 20 3 32 0 83-62 144-151 144-89 0-159-63-159-144s70-144 159-144c44 0 82 16 110 43l-49 43Z" fill="url(#metal)" filter="url(#glow)"/>
  <rect x="74" y="222" width="86" height="68" rx="24" fill="#38BDF8"/>
  <rect x="352" y="222" width="86" height="68" rx="24" fill="#22C55E"/>
  <rect x="106" y="190" width="34" height="132" rx="17" fill="#F9FAFB"/>
  <rect x="372" y="190" width="34" height="132" rx="17" fill="#F9FAFB"/>
</svg>
